<svg xmlns="http://www.w3.org/2000/svg" xmlns:xlink="http://www.w3.org/1999/xlink" version="1.1" x="0px" y="0px" viewBox="0 0 100 125" enable-background="new 0 0 100 100" xml:space="preserve"><path d="M29.631,50c0-1.104-0.896-2-2-2h-4.582c-1.104,0-2,0.896-2,2s0.896,2,2,2h4.582C28.735,52,29.631,51.104,29.631,50z   M76.951,48h-4.58c-1.104,0-2,0.896-2,2s0.896,2,2,2h4.58c1.104,0,2-0.896,2-2S78.056,48,76.951,48z M50,70.369  c-1.104,0-2,0.896-2,2v4.582c0,1.104,0.896,2,2,2s2-0.896,2-2v-4.582C52,71.265,51.104,70.369,50,70.369z M50,31.909  c1.104,0,2-0.896,2-2v-6.86c0-1.104-0.896-2-2-2s-2,0.896-2,2v6.86C48,31.014,48.896,31.909,50,31.909z M50,39.175  c-5.934,0-10.762,4.828-10.762,10.763S44.066,60.7,50,60.7c5.936,0,10.764-4.828,10.764-10.763S55.936,39.175,50,39.175z M50,56.7  c-3.729,0-6.762-3.034-6.762-6.763s3.033-6.763,6.762-6.763c3.729,0,6.764,3.034,6.764,6.763S53.729,56.7,50,56.7z M32.767,64.403  l-3.236,3.24c-0.78,0.781-0.78,2.048,0.002,2.828c0.391,0.39,0.901,0.585,1.413,0.585c0.513,0,1.024-0.195,1.415-0.587l3.236-3.24  c0.78-0.781,0.78-2.048-0.002-2.828C34.812,63.621,33.546,63.62,32.767,64.403z M65.82,36.184c0.513,0,1.024-0.195,1.415-0.587  l3.236-3.24c0.78-0.781,0.78-2.048-0.002-2.828c-0.783-0.78-2.049-0.781-2.828,0.002l-3.236,3.24  c-0.78,0.781-0.78,2.048,0.002,2.828C64.798,35.988,65.309,36.184,65.82,36.184z M67.23,64.402c-0.781-0.781-2.047-0.781-2.828,0  s-0.781,2.047,0,2.828l3.24,3.24c0.391,0.391,0.902,0.586,1.414,0.586s1.023-0.195,1.414-0.586c0.781-0.781,0.781-2.047,0-2.828  L67.23,64.402z M32.359,29.529c-0.781-0.781-2.047-0.781-2.828,0c-0.781,0.78-0.781,2.047,0,2.828l4.85,4.852  c0.391,0.391,0.902,0.586,1.414,0.586s1.023-0.195,1.414-0.586c0.781-0.78,0.781-2.047,0-2.828L32.359,29.529z"/><text x="0" y="115" fill="#000000" font-size="5px" font-weight="bold" font-family="'Helvetica Neue', Helvetica, Arial-Unicode, Arial, Sans-serif">Created by Kidiladon</text><text x="0" y="120" fill="#000000" font-size="5px" font-weight="bold" font-family="'Helvetica Neue', Helvetica, Arial-Unicode, Arial, Sans-serif">from the Noun Project</text></svg>