<svg xmlns="http://www.w3.org/2000/svg" xmlns:xlink="http://www.w3.org/1999/xlink" version="1.1" x="0px" y="0px" viewBox="0 0 100 125" style="enable-background:new 0 0 100 100;" xml:space="preserve"><g><path d="M18.4,26.6c-2.2-1.2-4.9-0.5-6.1,1.7c-1.2,2.1-0.5,4.9,1.6,6.1c0.7,0.4,1.5,0.6,2.2,0.6c1.6,0,3.1-0.8,3.9-2.3   C21.2,30.6,20.5,27.8,18.4,26.6z"/><path d="M15.4,50c0-2.5-2-4.5-4.5-4.5c-2.5,0-4.5,2-4.5,4.5c0,2.5,2,4.5,4.5,4.5C13.4,54.5,15.4,52.5,15.4,50z"/><path d="M13.9,65.7c-2.1,1.3-2.9,4-1.6,6.2c0.8,1.4,2.3,2.3,3.9,2.3c0.8,0,1.5-0.2,2.3-0.6c2.1-1.2,2.9-4,1.6-6.1   C18.8,65.2,16,64.4,13.9,65.7z"/><path d="M30.4,20.6c0.8,0,1.5-0.2,2.3-0.6c2.1-1.2,2.9-4,1.6-6.1c-1.3-2.2-4-2.9-6.1-1.6c-2.1,1.3-2.9,4-1.6,6.2   C27.3,19.8,28.9,20.6,30.4,20.6z"/><path d="M32.7,80c-2.1-1.2-4.9-0.5-6.1,1.6c-1.2,2.2-0.5,4.9,1.6,6.2c0.7,0.4,1.5,0.6,2.3,0.6c1.6,0,3.1-0.8,3.9-2.3   C35.6,84,34.8,81.2,32.7,80z"/><path d="M50,6.4c-2.5,0-4.5,2-4.5,4.5v78.2c0,2.5,2,4.5,4.5,4.5C74,93.6,93.6,74,93.6,50S74,6.4,50,6.4z M54.5,84.3V15.7   c17,2.2,30.1,16.8,30.1,34.3S71.5,82.1,54.5,84.3z"/></g><text x="0" y="115" fill="#000000" font-size="5px" font-weight="bold" font-family="'Helvetica Neue', Helvetica, Arial-Unicode, Arial, Sans-serif">Created by Gregor Cresnar</text><text x="0" y="120" fill="#000000" font-size="5px" font-weight="bold" font-family="'Helvetica Neue', Helvetica, Arial-Unicode, Arial, Sans-serif">from the Noun Project</text></svg>